<svg width="11" height="11" stroke-width="0.1" viewBox="0 0 12 12" fill="none" xmlns="http://www.w3.org/2000/svg">
<path fill-rule="evenodd" clip-rule="evenodd" d="M6.08301 0.980976C3.35979 0.980976 1.15218 3.17696 1.15218 5.88585C1.15218 6.71058 1.35642 7.48642 1.7169 8.16745L1.8002 8.32483L1.3182 10.5624L3.3048 9.94487L3.49622 10.0625C4.24789 10.5242 5.1334 10.7907 6.08301 10.7907C8.80623 10.7907 11.0138 8.59474 11.0138 5.88585C11.0138 3.17696 8.80623 0.980976 6.08301 0.980976ZM0.16602 5.88585C0.16602 2.63519 2.81515 0 6.08301 0C9.35087 0 12 2.63519 12 5.88585C12 9.13652 9.35087 11.7717 6.08301 11.7717C5.0269 11.7717 4.03422 11.4961 3.17508 11.013L0 12L0.761918 8.46284C0.380099 7.68404 0.16602 6.80919 0.16602 5.88585Z" fill="white"/>
</svg>
