<svg width="10" height="10" viewBox="0 0 10 10" fill="none" xmlns="http://www.w3.org/2000/svg">
<path d="M5 0C4.09836 0 3.26503 0.233196 2.5 0.699589C1.73497 1.13855 1.12022 1.74211 0.655738 2.51029C0.218579 3.27846 0 4.11523 0 5.02058C0 5.92593 0.218579 6.76269 0.655738 7.53086C1.12022 8.29904 1.73497 8.90261 2.5 9.34156C3.26503 9.78052 4.09836 10 5 10C5.90164 10 6.73497 9.78052 7.5 9.34156C8.26503 8.90261 8.86612 8.29904 9.30328 7.53086C9.76776 6.76269 10 5.92593 10 5.02058C10 4.11523 9.76776 3.27846 9.30328 2.51029C8.86612 1.74211 8.26503 1.13855 7.5 0.699589C6.73497 0.233196 5.90164 0 5 0ZM5 9.25926C4.23497 9.25926 3.52459 9.06721 2.86885 8.68313C2.21311 8.29904 1.69399 7.7915 1.31148 7.16049C0.928962 6.50206 0.737705 5.78875 0.737705 5.02058C0.765027 4.2524 0.956284 3.53909 1.31148 2.88066C1.69399 2.22222 2.21311 1.70096 2.86885 1.31687C3.52459 0.932784 4.23497 0.740741 5 0.740741C5.76503 0.740741 6.46175 0.932784 7.09016 1.31687C7.7459 1.70096 8.26503 2.22222 8.64754 2.88066C9.03006 3.53909 9.22131 4.2524 9.22131 5.02058C9.22131 5.78875 9.03006 6.50206 8.64754 7.16049C8.26503 7.7915 7.7459 8.29904 7.09016 8.68313C6.46175 9.06721 5.76503 9.25926 5 9.25926ZM6.18852 2.7572C6.05191 2.62003 5.87432 2.51029 5.65574 2.42798C5.46448 2.34568 5.2459 2.30453 5 2.30453C4.78142 2.30453 4.56284 2.34568 4.34426 2.42798C4.15301 2.51029 3.98907 2.63374 3.85246 2.79835C3.71585 2.93553 3.62022 3.10014 3.56557 3.29218C3.51093 3.45679 3.46995 3.63512 3.44262 3.82716H4.38525C4.38525 3.68999 4.41257 3.58025 4.46721 3.49794C4.54918 3.3882 4.63115 3.31962 4.71312 3.29218C4.8224 3.23731 4.91803 3.20988 5 3.20988C5.08197 3.20988 5.15027 3.22359 5.20492 3.25103C5.28689 3.25103 5.35519 3.27846 5.40984 3.33333C5.46448 3.36077 5.50546 3.41564 5.53279 3.49794C5.56011 3.55281 5.57377 3.63512 5.57377 3.74486C5.57377 3.8546 5.54645 3.97805 5.4918 4.11523C5.43716 4.22497 5.36885 4.3347 5.28689 4.44444L4.71312 5.10288C4.63115 5.21262 4.56284 5.33608 4.5082 5.47325C4.45355 5.58299 4.43989 5.70645 4.46721 5.84362V6.33745H5.36885V5.96708C5.36885 5.85734 5.39617 5.7476 5.45082 5.63786C5.50546 5.52812 5.57377 5.41838 5.65574 5.30864L5.94262 4.97942C6.05191 4.86968 6.14754 4.74623 6.22951 4.60905C6.31148 4.47188 6.37978 4.3347 6.43443 4.19753C6.48907 4.03292 6.51639 3.86831 6.51639 3.7037C6.51639 3.51166 6.48907 3.33333 6.43443 3.16872C6.37978 3.00412 6.29781 2.86694 6.18852 2.7572ZM4.46721 6.79012H5.32787V7.69547H4.46721V6.79012Z" fill="#C5CEE0" fill-opacity="0.5"/>
</svg>
